<svg xmlns="http://www.w3.org/2000/svg" width="16" height="16" viewBox="0 0 16 16">
    <g fill="none" fill-rule="evenodd">
        <circle cx="8" cy="8" r="8" fill="#CECECE"/>
        <path fill="#FFF" d="M8.777 6.583l.897 2.877.802-3.047c.065-.245.27-.413.502-.413.353 0 .605.376.497.745l-1.079 3.681c-.1.342-.39.574-.719.574-.322 0-.608-.223-.714-.556l-.96-3.037-.935 3.031c-.103.336-.391.562-.715.562h-.026c-.327 0-.617-.23-.719-.571l-1.08-3.645c-.116-.387.148-.784.52-.784.244 0 .458.175.526.43l.814 3.03.898-2.877c.109-.349.408-.583.745-.583s.637.234.746.583"/>
    </g>
</svg>
