<svg xmlns="http://www.w3.org/2000/svg" width="24" height="24" viewBox="0 0 24 24">
    <path fill="#CECECE" fill-rule="evenodd" d="M16.38 12.828l-.278-.014c-.766-.08-1.41-.364-1.753-.818-.283-.375-.356-.8-.327-1.133l-1.191 1.88 1.68 1.507c.066.06.127.125.176.198.128.194.229.403.3.625l.835 2.77c.111.365.013.781-.29 1.015-.16.124-.361.198-.58.198-.417 0-.767-.27-.894-.642l-.851-2.751c-.03-.098-.083-.193-.166-.253-.557-.403-.976-.746-1.293-1.03-.929 1.645-2.297 3.787-3.457 4.464-.225.18-.528.267-.857.174-.316-.088-.572-.35-.653-.667-.087-.34.014-.654.214-.877l.45-.414c.926-.853 1.618-1.93 2.011-3.126l.39-1.19c.028-.083.705-2.26.762-2.295.144-.484.323-.873.407-1.079-1.103.473-1.622 1.488-1.63 1.502-.197.314-.57.507-.983.43-.382-.069-.69-.385-.756-.767-.048-.272.024-.523.167-.72.595-1.14 2.406-2.991 5.33-2.453 1.377.253 2.913 1.328 2.747 3.527.075.026.177.037.41.047.525 0 .95.425.95.95 0 .497-.384.9-.87.942m-2.647-8.723c.784 0 1.418.634 1.418 1.417s-.634 1.418-1.418 1.418c-.783 0-1.418-.635-1.418-1.418 0-.783.635-1.417 1.418-1.417M12 0C5.373 0 0 5.373 0 12s5.373 12 12 12 12-5.373 12-12S18.627 0 12 0"/>
</svg>
