<svg xmlns="http://www.w3.org/2000/svg" width="152" height="32" viewBox="0 0 152 32">
    <g fill="none" fill-rule="evenodd">
        <path d="M0 0H162V44H0z" transform="translate(0 -6)"/>
        <path fill="#00D597" d="M27.033 11.537c3.348 3.285 4.43 7.614 4.551 11.967l-.127 14.275L17.384 38c-4.619-.047-9.264-1.057-12.746-4.48C1.675 30.648 0 26.678 0 22.529c0-4.15 1.675-8.12 4.638-10.992 6.185-6.069 16.212-6.069 22.395 0zm23.972 13.458c1.36 0 2.65.16 3.867.48 1.218.32 2.287.772 3.209 1.357.921.584 1.656 1.268 2.205 2.051.548.784.823 1.638.823 2.565 0 .948-.275 1.82-.823 2.614-.549.794-1.284 1.483-2.205 2.068-.922.585-1.991 1.043-3.21 1.374-1.217.33-2.506.496-3.866.496-1.427 0-2.743-.165-3.95-.496-1.207-.331-2.254-.79-3.143-1.374-.888-.585-1.585-1.274-2.09-2.068-.504-.794-.757-1.666-.757-2.614 0-.905.253-1.748.757-2.532.505-.783 1.202-1.467 2.09-2.052.889-.584 1.936-1.042 3.143-1.373 1.207-.33 2.523-.496 3.95-.496zm63.58 2.003c.482 0 .872.038 1.169.114.297.077.527.213.692.408.164.196.28.452.345.768.066.315.1.702.1 1.159v7.9c0 .435-.21.653-.627.653h-3.227c-.484 0-.725-.218-.725-.653V31.21c0-.327-.154-.49-.461-.49H96.37c-.177 0-.33-.033-.462-.098-.131-.065-.197-.217-.197-.457v-2.547c0-.304.066-.484.197-.538.132-.054.285-.082.461-.082h18.215zm30.597 0c.483 0 .873.038 1.17.114.296.077.526.213.691.408.165.196.28.452.346.768.066.315.099.702.099 1.159v7.9c0 .435-.21.653-.626.653h-3.228c-.483 0-.724-.218-.724-.653V31.21c0-.327-.154-.49-.462-.49h-15.48c-.176 0-.33-.033-.461-.098-.132-.065-.198-.217-.198-.457v-2.547c0-.304.066-.484.198-.538.132-.054.285-.082.46-.082h18.215zM89.043 6c.243 0 .409.045.497.133.088.089.133.255.133.5v30.63c0 .265-.045.437-.133.515-.088.077-.254.116-.497.116h-3.311c-.243 0-.409-.039-.497-.116-.088-.078-.132-.25-.132-.516V6.632c0-.244.044-.41.132-.499.088-.088.254-.133.497-.133h3.311zM51.005 28.602c-1.646 0-2.935.298-3.867.893-.933.596-1.4 1.28-1.4 2.052 0 .75.467 1.407 1.4 1.97.932.562 2.221.843 3.867.843.768 0 1.48-.078 2.139-.232.658-.154 1.229-.359 1.711-.612.483-.254.861-.552 1.136-.893.274-.342.411-.7.411-1.076 0-.375-.137-.739-.411-1.092-.275-.353-.653-.667-1.136-.943-.482-.276-1.053-.496-1.711-.662-.658-.165-1.371-.248-2.14-.248zm27.243-20.14c1.103 0 1.838.227 2.202.681.364.455.513 1.17.447 2.145-.132 1.996-.541 3.936-1.225 5.82-.685 1.885-1.612 3.67-2.782 5.355-1.17 1.685-2.578 3.254-4.222 4.706-1.645 1.452-3.494 2.743-5.547 3.874-.31.178-.547.266-.712.266-.166 0-.337-.121-.514-.366l-1.556-2.328c-.155-.221-.204-.432-.149-.632.055-.2.182-.354.38-.465 3.334-1.885 5.962-4.058 7.882-6.519 1.921-2.46 3.091-5.143 3.51-8.048.067-.466-.11-.699-.53-.699h-9.239c-.287 0-.463-.05-.53-.15-.066-.099-.099-.27-.099-.515V9.093c0-.266.044-.438.133-.516.088-.077.253-.116.496-.116h12.055zM60.253 6c.241 0 .406.044.494.132.087.089.131.254.131.497v17.108c0 .265-.044.43-.131.497-.088.066-.253.1-.494.1h-3.291c-.242 0-.406-.034-.494-.1-.088-.066-.132-.232-.132-.497v-2.184h-6.121c-.198 0-.351-.044-.46-.132-.111-.088-.166-.253-.166-.496v-2.35c0-.309.06-.496.182-.563.12-.066.268-.099.444-.099h6.121v-3.177h-6.154c-.505 1.06-1.152 2.107-1.942 3.144s-1.7 2.03-2.731 2.978c-1.032.95-2.184 1.82-3.456 2.615-1.273.794-2.633 1.478-4.081 2.051-.374.155-.61.221-.708.199-.099-.022-.203-.132-.312-.331L35.7 22.844c-.11-.22-.148-.38-.115-.48.033-.1.202-.215.51-.347 2.852-1.258 5.123-2.741 6.813-4.451 1.689-1.71 2.819-3.502 3.39-5.378.087-.242.109-.424.065-.546-.044-.12-.241-.182-.592-.182H37.51c-.285 0-.46-.066-.527-.198-.065-.133-.098-.298-.098-.497V8.383c0-.243.043-.414.131-.513.088-.1.264-.15.527-.15h11.223c1.009 0 1.695.172 2.057.514.362.342.543.932.543 1.77 0 .177-.006.359-.017.546-.011.188-.028.37-.05.546h5.036V6.63c0-.243.044-.408.132-.497.088-.088.252-.132.494-.132h3.29zm46.954 11.302c.263 0 .439.044.527.13.087.088.132.251.132.49v3.363h12.845c.198 0 .362.044.494.13.132.088.198.262.198.523v2.35c0 .457-.23.686-.692.686h-28.26c-.308 0-.494-.05-.56-.147-.066-.098-.099-.277-.099-.539v-2.35c0-.24.044-.408.132-.506.087-.098.263-.147.527-.147h10.836v-3.363c0-.239.05-.402.148-.49.1-.086.28-.13.544-.13h3.228zm30.597 0c.264 0 .44.044.527.13.088.088.132.251.132.49v3.363h12.845c.198 0 .363.044.494.13.132.088.198.262.198.523v2.35c0 .457-.23.686-.692.686h-28.26c-.307 0-.494-.05-.56-.147-.065-.098-.098-.277-.098-.539v-2.35c0-.24.043-.408.131-.506.088-.098.264-.147.527-.147h10.837v-3.363c0-.239.05-.402.148-.49.099-.086.28-.13.543-.13h3.228zM114.98 6.986c.79 0 1.372.168 1.746.506.373.337.56.92.56 1.746 0 .588-.012 1.273-.033 2.057-.023.783-.061 1.6-.116 2.448-.055.85-.131 1.714-.23 2.596-.099.881-.226 1.714-.38 2.497-.043.327-.13.523-.263.588-.131.065-.351.076-.658.033l-2.965-.262c-.285-.043-.444-.13-.477-.26-.033-.131-.028-.305.016-.523.066-.305.126-.67.181-1.094.055-.424.104-.865.149-1.322-1.164.044-2.394.077-3.69.098-1.295.022-2.63.044-4.001.065-1.373.022-2.756.033-4.15.033h-4.1c-.243 0-.402-.05-.478-.147-.078-.098-.116-.277-.116-.539V13.32c0-.24.038-.408.116-.506.076-.098.235-.147.477-.147h4.265c1.439 0 2.85-.005 4.233-.016 1.383-.01 2.728-.033 4.035-.066 1.306-.032 2.53-.07 3.672-.114 0-.196.005-.37.017-.522.01-.152.016-.272.016-.36 0-.326-.044-.56-.132-.701-.088-.142-.34-.212-.757-.212H97.029c-.22 0-.39-.027-.51-.082-.121-.054-.181-.223-.181-.506V7.54c0-.24.06-.392.18-.458.121-.065.291-.097.511-.097h17.951zm30.597 0c.79 0 1.372.168 1.746.506.373.337.56.92.56 1.746 0 .588-.011 1.273-.033 2.057-.022.783-.06 1.6-.115 2.448-.055.85-.132 1.714-.23 2.596-.1.881-.226 1.714-.38 2.497-.044.327-.131.523-.263.588-.132.065-.352.076-.659.033l-2.964-.262c-.286-.043-.445-.13-.478-.26-.033-.131-.028-.305.017-.523.066-.305.126-.67.18-1.094.055-.424.105-.865.15-1.322-1.165.044-2.395.077-3.69.098-1.296.022-2.63.044-4.002.065-1.372.022-2.756.033-4.15.033h-4.1c-.242 0-.401-.05-.478-.147-.077-.098-.115-.277-.115-.539V13.32c0-.24.038-.408.115-.506.077-.098.236-.147.478-.147h4.265c1.438 0 2.849-.005 4.232-.016 1.384-.01 2.728-.033 4.035-.066 1.306-.032 2.53-.07 3.673-.114 0-.196.005-.37.016-.522.01-.152.017-.272.017-.36 0-.326-.045-.56-.132-.701-.088-.142-.341-.212-.758-.212h-14.887c-.22 0-.39-.027-.51-.082-.122-.054-.182-.223-.182-.506V7.54c0-.24.06-.392.181-.458.12-.065.29-.097.51-.097h17.951z" transform="translate(0 -6)"/>
    </g>
</svg>
