<svg xmlns="http://www.w3.org/2000/svg" width="24" height="24" viewBox="0 0 24 24">
    <path fill="#FFF" fill-rule="evenodd" d="M12 0c6.617 0 12 5.383 12 12s-5.383 12-12 12S0 18.617 0 12 5.383 0 12 0zm-.21.848C5.874.958 1.072 5.69.852 11.578H4v.843H.853c.22 5.888 5.022 10.621 10.936 10.731v-2.941h.843v2.928c5.72-.321 10.3-4.97 10.515-10.718h-2.726v-.842h2.726C22.933 5.832 18.352 1.182 12.632.86V3.79h-.843zm.21 6.73c2.442 0 4.421 1.98 4.421 4.422 0 2.442-1.98 4.421-4.421 4.421-2.442 0-4.421-1.98-4.421-4.421 0-2.442 1.98-4.421 4.421-4.421z"/>
</svg>
