<svg xmlns="http://www.w3.org/2000/svg" width="16" height="16" viewBox="0 0 16 16">
    <g fill="none" fill-rule="evenodd">
        <path d="M0 0H18V18H0z" transform="translate(-1 -1)"/>
        <path fill="#8A8A8A" d="M10.393 1.175c-.197-.233-.516-.233-.713 0-.197.233-.197.611 0 .844l5.39 6.384H1.504C1.226 8.403 1 8.67 1 9c0 .33.226.597.504.597H15.07l-5.39 6.384c-.197.233-.197.61 0 .844.099.116.228.175.356.175.13 0 .259-.059.357-.175L17 9l-6.607-7.825z" transform="translate(-1 -1)"/>
    </g>
</svg>
